<?xml version="1.0" encoding="utf-8"?>
<!-- Generator: Adobe Illustrator 19.2.1, SVG Export Plug-In . SVG Version: 6.00 Build 0)  -->
<svg version="1.1" id="layer" xmlns="http://www.w3.org/2000/svg" xmlns:xlink="http://www.w3.org/1999/xlink" x="0px" y="0px"
	 viewBox="0 0 652 652" style="enable-background:new 0 0 652 652;" xml:space="preserve">
<path d="M598.8,327.3h22.9v-4.9h-7l-31.6-41.3c14.2-1.3,24.9-9.1,24.9-24.6c0-19.9-15.4-23.6-31.7-23.6h-42.7v4.9H547v84.6h-13.4
	v4.9h41.6v-4.9h-13.4v-38.7c7.6,0,8.4,0.3,12.4,6.3 M561.7,241.9c0-1.4,0.1-3.1,1.6-3.9c0.6-0.3,1.7-0.3,3.3-0.3c2.3,0,5,0.1,6,0.1
	c12.9,0,20.4,7.9,20.4,20.4c0,20.7-13.4,21.1-31.3,21.1V241.9z M511.8,327.3l2.6-22.6h-3.1l-11.4,14c-2,2.6-3.4,3.7-6.6,3.7h-20
	c-6.7,0-8.1-1.7-8.1-4.1v-37.7h8.7c3.9,0,8.3,0,9.7,1.4l7.1,7.1h3.1v-21.3h-3.1l-7.1,7.1c-1.4,1.4-4.7,1.4-8,1.4h-10.4v-38.6h25
	c3.3,0,4.3,1.1,6.3,4.1l8,12h3.1v-21h-70.7v4.9h13.7v84.6h-13.7v4.9H511.8z M417.3,327.3l2.6-22.6h-3.1l-11.4,14
	c-2,2.6-3.4,3.7-6.6,3.7h-24.6c-6.7,0-8.1-1.7-8.1-4.1v-79.8h14V233h-42.3v5.4h13.7v84h-13.7v4.9H417.3z M316.1,237.9V233h-27.6
	L258,306.2L226.5,233H199v4.9h13.6v84.6h-13v4.9h30.1v-4.9h-12.9v-75.9h0.3l34.7,81h1.4c6-13.7,12.1-27.3,17.9-41.1l16.3-39.9h0.3
	v75.9h-13v4.9h40.6v-4.9h-12.9v-84.6H316.1z M177.5,327.3l2.6-22.6h-3.1l-11.4,14c-2,2.6-3.4,3.7-6.6,3.7h-20
	c-6.7,0-8.1-1.7-8.1-4.1v-37.7h8.7c3.9,0,8.3,0,9.7,1.4l7.1,7.1h3.1v-21.3h-3.1l-7.1,7.1c-1.4,1.4-4.7,1.4-8,1.4h-10.4v-38.6h25
	c3.3,0,4.3,1.1,6.3,4.1l8,12h3.1v-21h-70.7v4.9h13.7v84.6h-13.7v4.9H177.5z M21.7,323.9c6.9,2.1,14.3,5.3,28.6,5.3
	c16.7,0,34.1-9,34.1-27.7c0-18.7-16.6-26.1-31.4-32.3l-0.9-0.4c-8.6-3.6-18.1-7.6-18.1-18.4c0-9.3,7.6-13.7,16.7-13.7
	c12.2,0,19.9,9.3,22.6,19.3h4.6v-19.3c-6.9-2.9-15.4-5.3-27.2-5.3c-15.6,0-28.3,9.4-28.3,25.7c0,16.3,13.9,23.1,26.9,28.1
	c10.4,4.1,21.7,9.3,21.7,22.3c0,11.6-9.3,16.1-20.4,16.1c-14.7,0-21.7-9.9-24.6-24.3h-4.3V323.9z M621.7,373.1v38.2h-4.5V389h-591
	v22.4h-4.5v-38.2"/>
</svg>
